<svg id="svg" xmlns="http://www.w3.org/2000/svg" xmlns:xlink="http://www.w3.org/1999/xlink" width="400" height="400" viewBox="0, 0, 400,400"><g id="svgg"><path id="path0" d="M119.109 48.479 C 113.969 50.367,115.318 66.832,121.737 80.542 L 123.874 85.107 121.454 87.964 C 105.501 106.788,102.032 132.751,112.267 156.717 L 112.883 158.161 111.227 159.978 C 89.216 184.127,88.104 226.864,108.687 257.593 C 114.967 266.967,125.285 277.126,132.949 281.479 L 134.563 282.396 107.605 282.507 L 80.647 282.617 78.039 283.901 C 68.767 288.467,67.803 301.587,76.314 307.372 C 79.684 309.662,78.074 309.554,111.942 309.766 C 139.058 309.935,143.296 310.039,143.787 310.547 C 144.099 310.869,146.083 313.296,148.196 315.939 C 157.110 327.089,167.128 336.122,178.208 343.003 C 180.510 344.432,182.312 345.712,182.212 345.848 C 182.113 345.983,182.131 346.023,182.254 345.937 C 182.376 345.850,184.344 346.654,186.628 347.723 C 198.230 353.154,204.095 353.028,215.820 347.097 C 229.371 340.243,244.024 327.830,253.895 314.844 C 254.630 313.877,255.909 312.383,256.737 311.523 L 258.243 309.961 289.180 309.766 L 320.117 309.570 322.461 308.422 C 332.016 303.743,333.396 291.580,325.097 285.174 C 321.675 282.532,322.880 282.638,293.555 282.422 C 276.900 282.299,267.284 282.092,267.773 281.867 C 274.717 278.669,288.088 265.040,294.246 254.883 C 312.841 224.215,311.254 183.537,290.573 160.717 C 287.936 157.806,288.074 158.194,289.007 156.332 C 299.033 136.320,295.537 107.496,280.877 89.305 C 276.739 84.171,277.000 85.132,278.809 81.704 C 280.793 77.947,282.944 72.177,283.784 68.359 C 284.139 66.748,284.562 64.902,284.725 64.258 C 285.314 61.922,285.223 54.205,284.582 52.080 C 282.955 46.692,279.439 46.732,272.708 52.215 C 260.794 61.920,248.426 64.106,234.787 58.917 C 222.371 54.194,210.366 52.318,196.289 52.900 C 183.585 53.426,176.692 54.942,161.483 60.559 C 155.289 62.846,147.680 62.227,139.727 58.788 C 135.651 57.026,130.433 53.890,130.743 53.389 C 130.873 53.177,130.790 53.122,130.557 53.266 C 130.325 53.409,128.935 52.618,127.470 51.506 C 122.735 47.916,121.680 47.534,119.109 48.479 M166.843 89.245 C 180.945 91.715,191.495 100.774,195.884 114.183 C 196.644 116.504,197.266 118.644,197.266 118.938 C 197.266 120.102,199.250 121.875,200.553 121.875 C 202.406 121.875,203.248 120.681,204.680 116.022 C 217.500 74.310,277.367 82.942,277.341 126.499 C 277.325 152.829,249.337 170.136,224.779 159.001 C 218.619 156.208,212.491 150.976,205.724 142.731 C 202.733 139.086,202.203 138.672,200.540 138.672 C 199.092 138.672,197.905 139.628,195.022 143.114 C 176.368 165.674,153.221 169.136,135.134 152.073 C 109.229 127.636,131.710 83.092,166.843 89.245 M156.523 108.631 C 143.666 111.657,138.959 128.050,148.154 137.772 C 159.138 149.386,178.094 141.607,178.120 125.476 C 178.138 114.505,167.342 106.085,156.523 108.631 M235.645 108.807 C 221.892 112.510,218.431 131.257,229.928 139.775 C 238.906 146.427,251.644 143.363,256.290 133.435 C 262.731 119.671,250.313 104.857,235.645 108.807 M194.313 177.849 C 199.686 182.757,205.661 180.990,211.033 172.903 C 212.302 170.995,212.434 171.270,211.308 173.477 C 208.145 179.678,203.272 184.766,200.496 184.766 C 198.252 184.766,193.454 179.933,190.607 174.805 C 188.557 171.112,188.678 170.934,191.090 174.098 C 192.206 175.561,193.656 177.249,194.313 177.849 M203.943 203.558 C 205.319 204.440,207.324 205.821,208.398 206.626 C 209.473 207.431,213.751 210.528,217.905 213.509 C 227.306 220.255,227.953 221.310,223.974 223.421 C 221.481 224.744,221.363 225.231,221.182 234.961 C 221.047 242.263,220.925 243.664,220.375 244.283 C 219.835 244.889,209.651 250.337,208.398 250.689 C 208.145 250.761,207.999 247.115,207.983 240.341 C 207.957 228.938,207.913 228.681,205.601 226.486 C 202.464 223.506,197.795 223.651,194.877 226.821 C 193.136 228.712,192.969 229.909,192.969 240.494 L 192.969 250.402 190.723 249.279 C 189.487 248.662,186.758 247.407,184.657 246.492 C 179.427 244.213,179.688 244.838,179.688 234.536 C 179.688 225.085,179.514 224.337,177.118 223.426 C 173.686 222.121,174.498 219.922,179.815 216.115 C 202.322 199.998,200.153 201.127,203.943 203.558 M269.127 238.973 C 271.225 240.672,269.893 241.852,263.086 244.328 C 239.865 252.775,221.597 267.374,205.965 289.973 C 203.926 292.920,203.450 292.729,195.343 285.703 C 189.925 281.007,189.939 281.060,193.012 276.989 C 208.070 257.047,232.509 243.216,260.938 238.548 C 263.855 238.069,268.295 238.300,269.127 238.973 M156.104 248.845 C 168.349 250.872,180.935 254.845,188.945 259.211 C 193.341 261.607,193.875 262.441,192.250 264.371 C 191.579 265.168,189.348 267.884,187.292 270.407 C 182.071 276.812,182.304 276.739,177.697 273.406 C 168.895 267.039,159.831 262.855,148.467 259.913 C 145.582 259.166,143.076 258.465,142.897 258.354 C 141.971 257.782,140.625 252.871,140.625 250.066 C 140.625 247.343,144.964 247.001,156.104 248.845 M260.173 257.638 C 261.468 259.198,256.058 270.732,250.856 277.498 C 242.538 288.319,232.846 294.225,221.512 295.379 C 213.067 296.238,213.114 294.599,221.837 284.180 C 233.752 269.947,257.020 253.838,260.173 257.638 M160.742 285.262 C 165.437 287.888,165.573 301.122,160.938 304.231 C 158.363 305.957,154.683 304.899,152.946 301.932 C 151.712 299.824,151.779 289.461,153.041 287.432 C 154.890 284.459,157.827 283.631,160.742 285.262 M178.210 285.251 C 182.371 287.590,182.781 301.139,178.780 304.074 C 176.370 305.841,172.620 304.987,170.532 302.195 C 169.584 300.928,169.119 291.205,169.883 288.648 C 170.943 285.107,175.005 283.450,178.210 285.251 " stroke="none" fill="#000000" fill-rule="evenodd"></path></g></svg>